<?xml version="1.0" encoding="UTF-8"?>
<!DOCTYPE svg PUBLIC "-//W3C//DTD SVG 1.1//EN" "http://www.w3.org/Graphics/SVG/1.1/DTD/svg11.dtd">
<svg xmlns="http://www.w3.org/2000/svg" xmlns:xlink="http://www.w3.org/1999/xlink" version="1.1" width="698px" height="598px" viewBox="-0.5 -0.5 698 598" style="background-color: rgb(255, 255, 255);"><defs><clipPath id="mx-clip-237-47-30-30-0"><rect x="237" y="47" width="30" height="30"/></clipPath><clipPath id="mx-clip-273-47-144-30-0"><rect x="273" y="47" width="144" height="30"/></clipPath><clipPath id="mx-clip-273-77-144-30-0"><rect x="273" y="77" width="144" height="30"/></clipPath><clipPath id="mx-clip-273-107-144-30-0"><rect x="273" y="107" width="144" height="30"/></clipPath><clipPath id="mx-clip-273-137-144-30-0"><rect x="273" y="137" width="144" height="30"/></clipPath><clipPath id="mx-clip-273-167-144-30-0"><rect x="273" y="167" width="144" height="30"/></clipPath><clipPath id="mx-clip-273-197-144-30-0"><rect x="273" y="197" width="144" height="30"/></clipPath><clipPath id="mx-clip-517-287-30-30-0"><rect x="517" y="287" width="30" height="30"/></clipPath><clipPath id="mx-clip-553-287-144-30-0"><rect x="553" y="287" width="144" height="30"/></clipPath><clipPath id="mx-clip-553-317-144-30-0"><rect x="553" y="317" width="144" height="30"/></clipPath><clipPath id="mx-clip-553-347-144-30-0"><rect x="553" y="347" width="144" height="30"/></clipPath><clipPath id="mx-clip-553-377-144-30-0"><rect x="553" y="377" width="144" height="30"/></clipPath><clipPath id="mx-clip-553-407-144-30-0"><rect x="553" y="407" width="144" height="30"/></clipPath><clipPath id="mx-clip-553-437-144-30-0"><rect x="553" y="437" width="144" height="30"/></clipPath><clipPath id="mx-clip-553-467-144-30-0"><rect x="553" y="467" width="144" height="30"/></clipPath><clipPath id="mx-clip-553-497-144-30-0"><rect x="553" y="497" width="144" height="30"/></clipPath><clipPath id="mx-clip-553-527-144-30-0"><rect x="553" y="527" width="144" height="30"/></clipPath><clipPath id="mx-clip-553-557-144-30-0"><rect x="553" y="557" width="144" height="30"/></clipPath><clipPath id="mx-clip-517-47-30-30-0"><rect x="517" y="47" width="30" height="30"/></clipPath><clipPath id="mx-clip-553-47-144-30-0"><rect x="553" y="47" width="144" height="30"/></clipPath><clipPath id="mx-clip-517-77-30-30-0"><rect x="517" y="77" width="30" height="30"/></clipPath><clipPath id="mx-clip-553-77-144-30-0"><rect x="553" y="77" width="144" height="30"/></clipPath><clipPath id="mx-clip-517-107-30-30-0"><rect x="517" y="107" width="30" height="30"/></clipPath><clipPath id="mx-clip-553-107-144-30-0"><rect x="553" y="107" width="144" height="30"/></clipPath><clipPath id="mx-clip-553-137-144-30-0"><rect x="553" y="137" width="144" height="30"/></clipPath><clipPath id="mx-clip-553-167-144-30-0"><rect x="553" y="167" width="144" height="30"/></clipPath><clipPath id="mx-clip-553-197-144-30-0"><rect x="553" y="197" width="144" height="30"/></clipPath><clipPath id="mx-clip-237-367-30-30-0"><rect x="237" y="367" width="30" height="30"/></clipPath><clipPath id="mx-clip-273-367-144-30-0"><rect x="273" y="367" width="144" height="30"/></clipPath><clipPath id="mx-clip-237-397-30-30-0"><rect x="237" y="397" width="30" height="30"/></clipPath><clipPath id="mx-clip-273-397-144-30-0"><rect x="273" y="397" width="144" height="30"/></clipPath><clipPath id="mx-clip-237-427-30-30-0"><rect x="237" y="427" width="30" height="30"/></clipPath><clipPath id="mx-clip-273-427-144-30-0"><rect x="273" y="427" width="144" height="30"/></clipPath><clipPath id="mx-clip-273-457-144-30-0"><rect x="273" y="457" width="144" height="30"/></clipPath><clipPath id="mx-clip-273-487-144-30-0"><rect x="273" y="487" width="144" height="30"/></clipPath><clipPath id="mx-clip-273-517-144-30-0"><rect x="273" y="517" width="144" height="30"/></clipPath><clipPath id="mx-clip-273-547-144-30-0"><rect x="273" y="547" width="144" height="30"/></clipPath><clipPath id="mx-clip-17-367-30-30-0"><rect x="17" y="367" width="30" height="30"/></clipPath><clipPath id="mx-clip-53-367-144-30-0"><rect x="53" y="367" width="144" height="30"/></clipPath><clipPath id="mx-clip-53-397-144-30-0"><rect x="53" y="397" width="144" height="30"/></clipPath><clipPath id="mx-clip-53-427-144-30-0"><rect x="53" y="427" width="144" height="30"/></clipPath><clipPath id="mx-clip-53-457-144-30-0"><rect x="53" y="457" width="144" height="30"/></clipPath><clipPath id="mx-clip-53-487-144-30-0"><rect x="53" y="487" width="144" height="30"/></clipPath><clipPath id="mx-clip-17-207-30-30-0"><rect x="17" y="207" width="30" height="30"/></clipPath><clipPath id="mx-clip-53-207-144-30-0"><rect x="53" y="207" width="144" height="30"/></clipPath><clipPath id="mx-clip-53-237-144-30-0"><rect x="53" y="237" width="144" height="30"/></clipPath><clipPath id="mx-clip-53-267-144-30-0"><rect x="53" y="267" width="144" height="30"/></clipPath><clipPath id="mx-clip-17-47-30-30-0"><rect x="17" y="47" width="30" height="30"/></clipPath><clipPath id="mx-clip-53-47-144-30-0"><rect x="53" y="47" width="144" height="30"/></clipPath><clipPath id="mx-clip-17-77-30-30-0"><rect x="17" y="77" width="30" height="30"/></clipPath><clipPath id="mx-clip-53-77-144-30-0"><rect x="53" y="77" width="144" height="30"/></clipPath><clipPath id="mx-clip-17-107-30-30-0"><rect x="17" y="107" width="30" height="30"/></clipPath><clipPath id="mx-clip-53-107-144-30-0"><rect x="53" y="107" width="144" height="30"/></clipPath></defs><g><path d="M 237 47 L 237 17 L 417 17 L 417 47" fill="rgb(255, 255, 255)" stroke="rgb(0, 0, 0)" stroke-miterlimit="10" pointer-events="all"/><path d="M 237 47 L 237 237 L 417 237 L 417 47" fill="none" stroke="rgb(0, 0, 0)" stroke-miterlimit="10" pointer-events="none"/><path d="M 237 47 L 417 47" fill="none" stroke="rgb(0, 0, 0)" stroke-miterlimit="10" pointer-events="none"/><path d="M 267 47 L 267 77 L 267 107 L 267 137 L 267 167 L 267 197 L 267 227" fill="none" stroke="rgb(0, 0, 0)" stroke-miterlimit="10" pointer-events="none"/><g fill="rgb(0, 0, 0)" font-family="Helvetica" font-weight="bold" pointer-events="none" text-anchor="middle" font-size="12px"><text x="326.5" y="36.5">Zone</text></g><path d="M 237 47 M 417 47 M 417 77 L 237 77" fill="none" stroke="rgb(0, 0, 0)" stroke-linecap="square" stroke-miterlimit="10" pointer-events="none"/><path d="M 237 47 M 267 47 M 267 77 M 237 77" fill="none" stroke="rgb(0, 0, 0)" stroke-linecap="square" stroke-miterlimit="10" pointer-events="none"/><g fill="rgb(0, 0, 0)" font-family="Helvetica" font-weight="bold" pointer-events="none" clip-path="url(#mx-clip-237-47-30-30-0)" text-anchor="middle" font-size="12px"><text x="251.5" y="66.5">PK</text></g><path d="M 267 47 M 417 47 M 417 77 M 267 77" fill="none" stroke="rgb(0, 0, 0)" stroke-linecap="square" stroke-miterlimit="10" pointer-events="none"/><g fill="rgb(0, 0, 0)" font-family="Helvetica" font-weight="bold" text-decoration="underline" pointer-events="none" clip-path="url(#mx-clip-273-47-144-30-0)" font-size="12px"><text x="274.5" y="66.5">Id: unsigned</text></g><path d="M 237 77 M 267 77 M 267 107 M 237 107" fill="none" stroke="rgb(0, 0, 0)" stroke-linecap="square" stroke-miterlimit="10" pointer-events="none"/><path d="M 267 77 M 417 77 M 417 107 M 267 107" fill="none" stroke="rgb(0, 0, 0)" stroke-linecap="square" stroke-miterlimit="10" pointer-events="none"/><g fill="rgb(0, 0, 0)" font-family="Helvetica" pointer-events="none" clip-path="url(#mx-clip-273-77-144-30-0)" font-size="12px"><text x="274.5" y="96.5">Name: varchar(255)</text></g><path d="M 237 107 M 267 107 M 267 137 M 237 137" fill="none" stroke="rgb(0, 0, 0)" stroke-linecap="square" stroke-miterlimit="10" pointer-events="none"/><path d="M 267 107 M 417 107 M 417 137 M 267 137" fill="none" stroke="rgb(0, 0, 0)" stroke-linecap="square" stroke-miterlimit="10" pointer-events="none"/><g fill="rgb(0, 0, 0)" font-family="Helvetica" pointer-events="none" clip-path="url(#mx-clip-273-107-144-30-0)" font-size="12px"><text x="274.5" y="126.5">Type: varchar(255)</text></g><path d="M 237 137 M 267 137 M 267 167 M 237 167" fill="none" stroke="rgb(0, 0, 0)" stroke-linecap="square" stroke-miterlimit="10" pointer-events="none"/><path d="M 267 137 M 417 137 M 417 167 M 267 167" fill="none" stroke="rgb(0, 0, 0)" stroke-linecap="square" stroke-miterlimit="10" pointer-events="none"/><g fill="rgb(0, 0, 0)" font-family="Helvetica" pointer-events="none" clip-path="url(#mx-clip-273-137-144-30-0)" font-size="12px"><text x="274.5" y="156.5">Size: numeric</text></g><path d="M 237 167 M 267 167 M 267 197 M 237 197" fill="none" stroke="rgb(0, 0, 0)" stroke-linecap="square" stroke-miterlimit="10" pointer-events="none"/><path d="M 267 167 M 417 167 M 417 197 M 267 197" fill="none" stroke="rgb(0, 0, 0)" stroke-linecap="square" stroke-miterlimit="10" pointer-events="none"/><g fill="rgb(0, 0, 0)" font-family="Helvetica" pointer-events="none" clip-path="url(#mx-clip-273-167-144-30-0)" font-size="12px"><text x="274.5" y="186.5">Raiting: numeric</text></g><path d="M 237 197 M 267 197 M 267 227 M 237 227" fill="none" stroke="rgb(0, 0, 0)" stroke-linecap="square" stroke-miterlimit="10" pointer-events="none"/><path d="M 267 197 M 417 197 M 417 227 M 267 227" fill="none" stroke="rgb(0, 0, 0)" stroke-linecap="square" stroke-miterlimit="10" pointer-events="none"/><g fill="rgb(0, 0, 0)" font-family="Helvetica" pointer-events="none" clip-path="url(#mx-clip-273-197-144-30-0)" font-size="12px"><text x="274.5" y="216.5">Price: numeric</text></g><path d="M 517 287 L 517 257 L 697 257 L 697 287" fill="rgb(255, 255, 255)" stroke="rgb(0, 0, 0)" stroke-miterlimit="10" pointer-events="none"/><path d="M 517 287 L 517 597 L 697 597 L 697 287" fill="none" stroke="rgb(0, 0, 0)" stroke-miterlimit="10" pointer-events="none"/><path d="M 517 287 L 697 287" fill="none" stroke="rgb(0, 0, 0)" stroke-miterlimit="10" pointer-events="none"/><path d="M 547 287 L 547 317 L 547 347 L 547 377 L 547 407 L 547 437 L 547 467 L 547 497 L 547 527 L 547 557 L 547 587" fill="none" stroke="rgb(0, 0, 0)" stroke-miterlimit="10" pointer-events="none"/><g fill="rgb(0, 0, 0)" font-family="Helvetica" font-weight="bold" pointer-events="none" text-anchor="middle" font-size="12px"><text x="606.5" y="276.5">User</text></g><path d="M 517 287 M 697 287 M 697 317 L 517 317" fill="none" stroke="rgb(0, 0, 0)" stroke-linecap="square" stroke-miterlimit="10" pointer-events="none"/><path d="M 517 287 M 547 287 M 547 317 M 517 317" fill="none" stroke="rgb(0, 0, 0)" stroke-linecap="square" stroke-miterlimit="10" pointer-events="none"/><g fill="rgb(0, 0, 0)" font-family="Helvetica" font-weight="bold" pointer-events="none" clip-path="url(#mx-clip-517-287-30-30-0)" text-anchor="middle" font-size="12px"><text x="531.5" y="306.5">PK</text></g><path d="M 547 287 M 697 287 M 697 317 M 547 317" fill="none" stroke="rgb(0, 0, 0)" stroke-linecap="square" stroke-miterlimit="10" pointer-events="none"/><g fill="rgb(0, 0, 0)" font-family="Helvetica" font-weight="bold" text-decoration="underline" pointer-events="none" clip-path="url(#mx-clip-553-287-144-30-0)" font-size="12px"><text x="554.5" y="306.5">Id: unsigned</text></g><path d="M 517 317 M 547 317 M 547 347 M 517 347" fill="none" stroke="rgb(0, 0, 0)" stroke-linecap="square" stroke-miterlimit="10" pointer-events="none"/><path d="M 547 317 M 697 317 M 697 347 M 547 347" fill="none" stroke="rgb(0, 0, 0)" stroke-linecap="square" stroke-miterlimit="10" pointer-events="none"/><g fill="rgb(0, 0, 0)" font-family="Helvetica" pointer-events="none" clip-path="url(#mx-clip-553-317-144-30-0)" font-size="12px"><text x="554.5" y="336.5">Surname: varchar(255)</text></g><path d="M 517 347 M 547 347 M 547 377 M 517 377" fill="none" stroke="rgb(0, 0, 0)" stroke-linecap="square" stroke-miterlimit="10" pointer-events="none"/><path d="M 547 347 M 697 347 M 697 377 M 547 377" fill="none" stroke="rgb(0, 0, 0)" stroke-linecap="square" stroke-miterlimit="10" pointer-events="none"/><g fill="rgb(0, 0, 0)" font-family="Helvetica" pointer-events="none" clip-path="url(#mx-clip-553-347-144-30-0)" font-size="12px"><text x="554.5" y="366.5">Name: varchar(255)</text></g><path d="M 517 377 M 547 377 M 547 407 M 517 407" fill="none" stroke="rgb(0, 0, 0)" stroke-linecap="square" stroke-miterlimit="10" pointer-events="none"/><path d="M 547 377 M 697 377 M 697 407 M 547 407" fill="none" stroke="rgb(0, 0, 0)" stroke-linecap="square" stroke-miterlimit="10" pointer-events="none"/><g fill="rgb(0, 0, 0)" font-family="Helvetica" pointer-events="none" clip-path="url(#mx-clip-553-377-144-30-0)" font-size="12px"><text x="554.5" y="396.5">MiddleName: varchar(255)</text></g><path d="M 517 407 M 547 407 M 547 437 M 517 437" fill="none" stroke="rgb(0, 0, 0)" stroke-linecap="square" stroke-miterlimit="10" pointer-events="none"/><path d="M 547 407 M 697 407 M 697 437 M 547 437" fill="none" stroke="rgb(0, 0, 0)" stroke-linecap="square" stroke-miterlimit="10" pointer-events="none"/><g fill="rgb(0, 0, 0)" font-family="Helvetica" pointer-events="none" clip-path="url(#mx-clip-553-407-144-30-0)" font-size="12px"><text x="554.5" y="426.5">Birthday: date</text></g><path d="M 517 437 M 547 437 M 547 467 M 517 467" fill="none" stroke="rgb(0, 0, 0)" stroke-linecap="square" stroke-miterlimit="10" pointer-events="none"/><path d="M 547 437 M 697 437 M 697 467 M 547 467" fill="none" stroke="rgb(0, 0, 0)" stroke-linecap="square" stroke-miterlimit="10" pointer-events="none"/><g fill="rgb(0, 0, 0)" font-family="Helvetica" pointer-events="none" clip-path="url(#mx-clip-553-437-144-30-0)" font-size="12px"><text x="554.5" y="456.5">Gender: varchar(30)</text></g><path d="M 517 467 M 547 467 M 547 497 M 517 497" fill="none" stroke="rgb(0, 0, 0)" stroke-linecap="square" stroke-miterlimit="10" pointer-events="none"/><path d="M 547 467 M 697 467 M 697 497 M 547 497" fill="none" stroke="rgb(0, 0, 0)" stroke-linecap="square" stroke-miterlimit="10" pointer-events="none"/><g fill="rgb(0, 0, 0)" font-family="Helvetica" pointer-events="none" clip-path="url(#mx-clip-553-467-144-30-0)" font-size="12px"><text x="554.5" y="486.5">Login: varchar(255)</text></g><path d="M 517 497 M 547 497 M 547 527 M 517 527" fill="none" stroke="rgb(0, 0, 0)" stroke-linecap="square" stroke-miterlimit="10" pointer-events="none"/><path d="M 547 497 M 697 497 M 697 527 M 547 527" fill="none" stroke="rgb(0, 0, 0)" stroke-linecap="square" stroke-miterlimit="10" pointer-events="none"/><g fill="rgb(0, 0, 0)" font-family="Helvetica" pointer-events="none" clip-path="url(#mx-clip-553-497-144-30-0)" font-size="12px"><text x="554.5" y="516.5">Password: varchar(255)</text></g><path d="M 517 527 M 547 527 M 547 557 M 517 557" fill="none" stroke="rgb(0, 0, 0)" stroke-linecap="square" stroke-miterlimit="10" pointer-events="none"/><path d="M 547 527 M 697 527 M 697 557 M 547 557" fill="none" stroke="rgb(0, 0, 0)" stroke-linecap="square" stroke-miterlimit="10" pointer-events="none"/><g fill="rgb(0, 0, 0)" font-family="Helvetica" pointer-events="none" clip-path="url(#mx-clip-553-527-144-30-0)" font-size="12px"><text x="554.5" y="546.5">Email: varchar(255)</text></g><path d="M 517 557 M 547 557 M 547 587 M 517 587" fill="none" stroke="rgb(0, 0, 0)" stroke-linecap="square" stroke-miterlimit="10" pointer-events="none"/><path d="M 547 557 M 697 557 M 697 587 M 547 587" fill="none" stroke="rgb(0, 0, 0)" stroke-linecap="square" stroke-miterlimit="10" pointer-events="none"/><g fill="rgb(0, 0, 0)" font-family="Helvetica" pointer-events="none" clip-path="url(#mx-clip-553-557-144-30-0)" font-size="12px"><text x="554.5" y="576.5">Role: varchar(255)</text></g><path d="M 517 47 L 517 17 L 697 17 L 697 47" fill="rgb(255, 255, 255)" stroke="rgb(0, 0, 0)" stroke-miterlimit="10" pointer-events="none"/><path d="M 517 47 L 517 237 L 697 237 L 697 47" fill="none" stroke="rgb(0, 0, 0)" stroke-miterlimit="10" pointer-events="none"/><path d="M 517 47 L 697 47" fill="none" stroke="rgb(0, 0, 0)" stroke-miterlimit="10" pointer-events="none"/><path d="M 547 47 L 547 77 L 547 107 L 547 137 L 547 167 L 547 197 L 547 227" fill="none" stroke="rgb(0, 0, 0)" stroke-miterlimit="10" pointer-events="none"/><g fill="rgb(0, 0, 0)" font-family="Helvetica" font-weight="bold" pointer-events="none" text-anchor="middle" font-size="12px"><text x="606.5" y="36.5">Feedback</text></g><path d="M 517 47 M 697 47 M 697 77 L 517 77" fill="none" stroke="rgb(0, 0, 0)" stroke-linecap="square" stroke-miterlimit="10" pointer-events="none"/><path d="M 517 47 M 547 47 M 547 77 M 517 77" fill="none" stroke="rgb(0, 0, 0)" stroke-linecap="square" stroke-miterlimit="10" pointer-events="none"/><g fill="rgb(0, 0, 0)" font-family="Helvetica" font-weight="bold" pointer-events="none" clip-path="url(#mx-clip-517-47-30-30-0)" text-anchor="middle" font-size="12px"><text x="531.5" y="66.5">PK</text></g><path d="M 547 47 M 697 47 M 697 77 M 547 77" fill="none" stroke="rgb(0, 0, 0)" stroke-linecap="square" stroke-miterlimit="10" pointer-events="none"/><g fill="rgb(0, 0, 0)" font-family="Helvetica" font-weight="bold" text-decoration="underline" pointer-events="none" clip-path="url(#mx-clip-553-47-144-30-0)" font-size="12px"><text x="554.5" y="66.5">Id: unsigned</text></g><path d="M 517 77 M 547 77 M 547 107 M 517 107" fill="none" stroke="rgb(0, 0, 0)" stroke-linecap="square" stroke-miterlimit="10" pointer-events="none"/><g fill="rgb(0, 0, 0)" font-family="Helvetica" pointer-events="none" clip-path="url(#mx-clip-517-77-30-30-0)" text-anchor="middle" font-size="12px"><text x="531.5" y="96.5">FK</text></g><path d="M 547 77 M 697 77 M 697 107 M 547 107" fill="none" stroke="rgb(0, 0, 0)" stroke-linecap="square" stroke-miterlimit="10" pointer-events="none"/><g fill="rgb(0, 0, 0)" font-family="Helvetica" pointer-events="none" clip-path="url(#mx-clip-553-77-144-30-0)" font-size="12px"><text x="554.5" y="96.5">ZoneId: unsigned</text></g><path d="M 517 107 M 547 107 M 547 137 M 517 137" fill="none" stroke="rgb(0, 0, 0)" stroke-linecap="square" stroke-miterlimit="10" pointer-events="none"/><g fill="rgb(0, 0, 0)" font-family="Helvetica" pointer-events="none" clip-path="url(#mx-clip-517-107-30-30-0)" text-anchor="middle" font-size="12px"><text x="531.5" y="126.5">FK</text></g><path d="M 547 107 M 697 107 M 697 137 M 547 137" fill="none" stroke="rgb(0, 0, 0)" stroke-linecap="square" stroke-miterlimit="10" pointer-events="none"/><g fill="rgb(0, 0, 0)" font-family="Helvetica" pointer-events="none" clip-path="url(#mx-clip-553-107-144-30-0)" font-size="12px"><text x="554.5" y="126.5">UserId: unsigned</text></g><path d="M 517 137 M 547 137 M 547 167 M 517 167" fill="none" stroke="rgb(0, 0, 0)" stroke-linecap="square" stroke-miterlimit="10" pointer-events="none"/><path d="M 547 137 M 697 137 M 697 167 M 547 167" fill="none" stroke="rgb(0, 0, 0)" stroke-linecap="square" stroke-miterlimit="10" pointer-events="none"/><g fill="rgb(0, 0, 0)" font-family="Helvetica" pointer-events="none" clip-path="url(#mx-clip-553-137-144-30-0)" font-size="12px"><text x="554.5" y="156.5">Mark: integer</text></g><path d="M 517 167 M 547 167 M 547 197 M 517 197" fill="none" stroke="rgb(0, 0, 0)" stroke-linecap="square" stroke-miterlimit="10" pointer-events="none"/><path d="M 547 167 M 697 167 M 697 197 M 547 197" fill="none" stroke="rgb(0, 0, 0)" stroke-linecap="square" stroke-miterlimit="10" pointer-events="none"/><g fill="rgb(0, 0, 0)" font-family="Helvetica" pointer-events="none" clip-path="url(#mx-clip-553-167-144-30-0)" font-size="12px"><text x="554.5" y="186.5">CreationDay: DateTime</text></g><path d="M 517 197 M 547 197 M 547 227 M 517 227" fill="none" stroke="rgb(0, 0, 0)" stroke-linecap="square" stroke-miterlimit="10" pointer-events="none"/><path d="M 547 197 M 697 197 M 697 227 M 547 227" fill="none" stroke="rgb(0, 0, 0)" stroke-linecap="square" stroke-miterlimit="10" pointer-events="none"/><g fill="rgb(0, 0, 0)" font-family="Helvetica" pointer-events="none" clip-path="url(#mx-clip-553-197-144-30-0)" font-size="12px"><text x="554.5" y="216.5">Message: text</text></g><path d="M 237 367 L 237 337 L 417 337 L 417 367" fill="rgb(255, 255, 255)" stroke="rgb(0, 0, 0)" stroke-miterlimit="10" pointer-events="none"/><path d="M 237 367 L 237 587 L 417 587 L 417 367" fill="none" stroke="rgb(0, 0, 0)" stroke-miterlimit="10" pointer-events="none"/><path d="M 237 367 L 417 367" fill="none" stroke="rgb(0, 0, 0)" stroke-miterlimit="10" pointer-events="none"/><path d="M 267 367 L 267 397 L 267 427 L 267 457 L 267 487 L 267 517 L 267 547 L 267 577" fill="none" stroke="rgb(0, 0, 0)" stroke-miterlimit="10" pointer-events="none"/><g fill="rgb(0, 0, 0)" font-family="Helvetica" font-weight="bold" pointer-events="none" text-anchor="middle" font-size="12px"><text x="326.5" y="356.5">Booking</text></g><path d="M 237 367 M 417 367 M 417 397 L 237 397" fill="none" stroke="rgb(0, 0, 0)" stroke-linecap="square" stroke-miterlimit="10" pointer-events="none"/><path d="M 237 367 M 267 367 M 267 397 M 237 397" fill="none" stroke="rgb(0, 0, 0)" stroke-linecap="square" stroke-miterlimit="10" pointer-events="none"/><g fill="rgb(0, 0, 0)" font-family="Helvetica" font-weight="bold" pointer-events="none" clip-path="url(#mx-clip-237-367-30-30-0)" text-anchor="middle" font-size="12px"><text x="251.5" y="386.5">PK</text></g><path d="M 267 367 M 417 367 M 417 397 M 267 397" fill="none" stroke="rgb(0, 0, 0)" stroke-linecap="square" stroke-miterlimit="10" pointer-events="none"/><g fill="rgb(0, 0, 0)" font-family="Helvetica" font-weight="bold" text-decoration="underline" pointer-events="none" clip-path="url(#mx-clip-273-367-144-30-0)" font-size="12px"><text x="274.5" y="386.5">Id: unsigned</text></g><path d="M 237 397 M 267 397 M 267 427 M 237 427" fill="none" stroke="rgb(0, 0, 0)" stroke-linecap="square" stroke-miterlimit="10" pointer-events="none"/><g fill="rgb(0, 0, 0)" font-family="Helvetica" pointer-events="none" clip-path="url(#mx-clip-237-397-30-30-0)" text-anchor="middle" font-size="12px"><text x="251.5" y="416.5">FK</text></g><path d="M 267 397 M 417 397 M 417 427 M 267 427" fill="none" stroke="rgb(0, 0, 0)" stroke-linecap="square" stroke-miterlimit="10" pointer-events="none"/><g fill="rgb(0, 0, 0)" font-family="Helvetica" pointer-events="none" clip-path="url(#mx-clip-273-397-144-30-0)" font-size="12px"><text x="274.5" y="416.5">UserId: unsigned</text></g><path d="M 237 427 M 267 427 M 267 457 M 237 457" fill="none" stroke="rgb(0, 0, 0)" stroke-linecap="square" stroke-miterlimit="10" pointer-events="none"/><g fill="rgb(0, 0, 0)" font-family="Helvetica" pointer-events="none" clip-path="url(#mx-clip-237-427-30-30-0)" text-anchor="middle" font-size="12px"><text x="251.5" y="446.5">FK</text></g><path d="M 267 427 M 417 427 M 417 457 M 267 457" fill="none" stroke="rgb(0, 0, 0)" stroke-linecap="square" stroke-miterlimit="10" pointer-events="none"/><g fill="rgb(0, 0, 0)" font-family="Helvetica" pointer-events="none" clip-path="url(#mx-clip-273-427-144-30-0)" font-size="12px"><text x="274.5" y="446.5">ZoneId: unsigned</text></g><path d="M 237 457 M 267 457 M 267 487 M 237 487" fill="none" stroke="rgb(0, 0, 0)" stroke-linecap="square" stroke-miterlimit="10" pointer-events="none"/><path d="M 267 457 M 417 457 M 417 487 M 267 487" fill="none" stroke="rgb(0, 0, 0)" stroke-linecap="square" stroke-miterlimit="10" pointer-events="none"/><g fill="rgb(0, 0, 0)" font-family="Helvetica" pointer-events="none" clip-path="url(#mx-clip-273-457-144-30-0)" font-size="12px"><text x="274.5" y="476.5">NumberOfPeople: integer</text></g><path d="M 237 487 M 267 487 M 267 517 M 237 517" fill="none" stroke="rgb(0, 0, 0)" stroke-linecap="square" stroke-miterlimit="10" pointer-events="none"/><path d="M 267 487 M 417 487 M 417 517 M 267 517" fill="none" stroke="rgb(0, 0, 0)" stroke-linecap="square" stroke-miterlimit="10" pointer-events="none"/><g fill="rgb(0, 0, 0)" font-family="Helvetica" pointer-events="none" clip-path="url(#mx-clip-273-487-144-30-0)" font-size="12px"><text x="274.5" y="506.5">StartDate: DateTime</text></g><path d="M 237 517 M 267 517 M 267 547 M 237 547" fill="none" stroke="rgb(0, 0, 0)" stroke-linecap="square" stroke-miterlimit="10" pointer-events="none"/><path d="M 267 517 M 417 517 M 417 547 M 267 547" fill="none" stroke="rgb(0, 0, 0)" stroke-linecap="square" stroke-miterlimit="10" pointer-events="none"/><g fill="rgb(0, 0, 0)" font-family="Helvetica" pointer-events="none" clip-path="url(#mx-clip-273-517-144-30-0)" font-size="12px"><text x="274.5" y="536.5">EndDate: DateTime</text></g><path d="M 237 547 M 267 547 M 267 577 M 237 577" fill="none" stroke="rgb(0, 0, 0)" stroke-linecap="square" stroke-miterlimit="10" pointer-events="none"/><path d="M 267 547 M 417 547 M 417 577 M 267 577" fill="none" stroke="rgb(0, 0, 0)" stroke-linecap="square" stroke-miterlimit="10" pointer-events="none"/><g fill="rgb(0, 0, 0)" font-family="Helvetica" pointer-events="none" clip-path="url(#mx-clip-273-547-144-30-0)" font-size="12px"><text x="274.5" y="566.5">Status: varchar(255)</text></g><path d="M 17 367 L 17 337 L 197 337 L 197 367" fill="rgb(255, 255, 255)" stroke="rgb(0, 0, 0)" stroke-miterlimit="10" pointer-events="none"/><path d="M 17 367 L 17 527 L 197 527 L 197 367" fill="none" stroke="rgb(0, 0, 0)" stroke-miterlimit="10" pointer-events="none"/><path d="M 17 367 L 197 367" fill="none" stroke="rgb(0, 0, 0)" stroke-miterlimit="10" pointer-events="none"/><path d="M 47 367 L 47 397 L 47 427 L 47 457 L 47 487 L 47 517" fill="none" stroke="rgb(0, 0, 0)" stroke-miterlimit="10" pointer-events="none"/><g fill="rgb(0, 0, 0)" font-family="Helvetica" font-weight="bold" pointer-events="none" text-anchor="middle" font-size="12px"><text x="106.5" y="356.5">Menu</text></g><path d="M 17 367 M 197 367 M 197 397 L 17 397" fill="none" stroke="rgb(0, 0, 0)" stroke-linecap="square" stroke-miterlimit="10" pointer-events="none"/><path d="M 17 367 M 47 367 M 47 397 M 17 397" fill="none" stroke="rgb(0, 0, 0)" stroke-linecap="square" stroke-miterlimit="10" pointer-events="none"/><g fill="rgb(0, 0, 0)" font-family="Helvetica" font-weight="bold" pointer-events="none" clip-path="url(#mx-clip-17-367-30-30-0)" text-anchor="middle" font-size="12px"><text x="31.5" y="386.5">PK</text></g><path d="M 47 367 M 197 367 M 197 397 M 47 397" fill="none" stroke="rgb(0, 0, 0)" stroke-linecap="square" stroke-miterlimit="10" pointer-events="none"/><g fill="rgb(0, 0, 0)" font-family="Helvetica" font-weight="bold" text-decoration="underline" pointer-events="none" clip-path="url(#mx-clip-53-367-144-30-0)" font-size="12px"><text x="54.5" y="386.5">Id: unsigned</text></g><path d="M 17 397 M 47 397 M 47 427 M 17 427" fill="none" stroke="rgb(0, 0, 0)" stroke-linecap="square" stroke-miterlimit="10" pointer-events="none"/><path d="M 47 397 M 197 397 M 197 427 M 47 427" fill="none" stroke="rgb(0, 0, 0)" stroke-linecap="square" stroke-miterlimit="10" pointer-events="none"/><g fill="rgb(0, 0, 0)" font-family="Helvetica" pointer-events="none" clip-path="url(#mx-clip-53-397-144-30-0)" font-size="12px"><text x="54.5" y="416.5">Name: varchar(255)</text></g><path d="M 17 427 M 47 427 M 47 457 M 17 457" fill="none" stroke="rgb(0, 0, 0)" stroke-linecap="square" stroke-miterlimit="10" pointer-events="none"/><path d="M 47 427 M 197 427 M 197 457 M 47 457" fill="none" stroke="rgb(0, 0, 0)" stroke-linecap="square" stroke-miterlimit="10" pointer-events="none"/><g fill="rgb(0, 0, 0)" font-family="Helvetica" pointer-events="none" clip-path="url(#mx-clip-53-427-144-30-0)" font-size="12px"><text x="54.5" y="446.5">Type: varchar(255)</text></g><path d="M 17 457 M 47 457 M 47 487 M 17 487" fill="none" stroke="rgb(0, 0, 0)" stroke-linecap="square" stroke-miterlimit="10" pointer-events="none"/><path d="M 47 457 M 197 457 M 197 487 M 47 487" fill="none" stroke="rgb(0, 0, 0)" stroke-linecap="square" stroke-miterlimit="10" pointer-events="none"/><g fill="rgb(0, 0, 0)" font-family="Helvetica" pointer-events="none" clip-path="url(#mx-clip-53-457-144-30-0)" font-size="12px"><text x="54.5" y="476.5">Decription: text</text></g><path d="M 17 487 M 47 487 M 47 517 M 17 517" fill="none" stroke="rgb(0, 0, 0)" stroke-linecap="square" stroke-miterlimit="10" pointer-events="none"/><path d="M 47 487 M 197 487 M 197 517 M 47 517" fill="none" stroke="rgb(0, 0, 0)" stroke-linecap="square" stroke-miterlimit="10" pointer-events="none"/><g fill="rgb(0, 0, 0)" font-family="Helvetica" pointer-events="none" clip-path="url(#mx-clip-53-487-144-30-0)" font-size="12px"><text x="54.5" y="506.5">Price: numeric</text></g><path d="M 17 207 L 17 177 L 197 177 L 197 207" fill="rgb(255, 255, 255)" stroke="rgb(0, 0, 0)" stroke-miterlimit="10" pointer-events="none"/><path d="M 17 207 L 17 307 L 197 307 L 197 207" fill="none" stroke="rgb(0, 0, 0)" stroke-miterlimit="10" pointer-events="none"/><path d="M 17 207 L 197 207" fill="none" stroke="rgb(0, 0, 0)" stroke-miterlimit="10" pointer-events="none"/><path d="M 47 207 L 47 237 L 47 267 L 47 297" fill="none" stroke="rgb(0, 0, 0)" stroke-miterlimit="10" pointer-events="none"/><g fill="rgb(0, 0, 0)" font-family="Helvetica" font-weight="bold" pointer-events="none" text-anchor="middle" font-size="12px"><text x="106.5" y="196.5">Inventory</text></g><path d="M 17 207 M 197 207 M 197 237 L 17 237" fill="none" stroke="rgb(0, 0, 0)" stroke-linecap="square" stroke-miterlimit="10" pointer-events="none"/><path d="M 17 207 M 47 207 M 47 237 M 17 237" fill="none" stroke="rgb(0, 0, 0)" stroke-linecap="square" stroke-miterlimit="10" pointer-events="none"/><g fill="rgb(0, 0, 0)" font-family="Helvetica" font-weight="bold" pointer-events="none" clip-path="url(#mx-clip-17-207-30-30-0)" text-anchor="middle" font-size="12px"><text x="31.5" y="226.5">PK</text></g><path d="M 47 207 M 197 207 M 197 237 M 47 237" fill="none" stroke="rgb(0, 0, 0)" stroke-linecap="square" stroke-miterlimit="10" pointer-events="none"/><g fill="rgb(0, 0, 0)" font-family="Helvetica" font-weight="bold" text-decoration="underline" pointer-events="none" clip-path="url(#mx-clip-53-207-144-30-0)" font-size="12px"><text x="54.5" y="226.5">Id: unsigned</text></g><path d="M 17 237 M 47 237 M 47 267 M 17 267" fill="none" stroke="rgb(0, 0, 0)" stroke-linecap="square" stroke-miterlimit="10" pointer-events="none"/><path d="M 47 237 M 197 237 M 197 267 M 47 267" fill="none" stroke="rgb(0, 0, 0)" stroke-linecap="square" stroke-miterlimit="10" pointer-events="none"/><g fill="rgb(0, 0, 0)" font-family="Helvetica" pointer-events="none" clip-path="url(#mx-clip-53-237-144-30-0)" font-size="12px"><text x="54.5" y="256.5">Name: varchar(255)</text></g><path d="M 17 267 M 47 267 M 47 297 M 17 297" fill="none" stroke="rgb(0, 0, 0)" stroke-linecap="square" stroke-miterlimit="10" pointer-events="none"/><path d="M 47 267 M 197 267 M 197 297 M 47 297" fill="none" stroke="rgb(0, 0, 0)" stroke-linecap="square" stroke-miterlimit="10" pointer-events="none"/><g fill="rgb(0, 0, 0)" font-family="Helvetica" pointer-events="none" clip-path="url(#mx-clip-53-267-144-30-0)" font-size="12px"><text x="54.5" y="286.5">Type: varchar(255)</text></g><path d="M 17 47 L 17 17 L 197 17 L 197 47" fill="rgb(255, 255, 255)" stroke="rgb(0, 0, 0)" stroke-miterlimit="10" pointer-events="none"/><path d="M 17 47 L 17 147 L 197 147 L 197 47" fill="none" stroke="rgb(0, 0, 0)" stroke-miterlimit="10" pointer-events="none"/><path d="M 17 47 L 197 47" fill="none" stroke="rgb(0, 0, 0)" stroke-miterlimit="10" pointer-events="none"/><path d="M 47 47 L 47 77 L 47 107 L 47 137" fill="none" stroke="rgb(0, 0, 0)" stroke-miterlimit="10" pointer-events="none"/><g fill="rgb(0, 0, 0)" font-family="Helvetica" font-weight="bold" pointer-events="none" text-anchor="middle" font-size="12px"><text x="106.5" y="36.5">ZoneInventory</text></g><path d="M 17 47 M 197 47 M 197 77 L 17 77" fill="none" stroke="rgb(0, 0, 0)" stroke-linecap="square" stroke-miterlimit="10" pointer-events="none"/><path d="M 17 47 M 47 47 M 47 77 M 17 77" fill="none" stroke="rgb(0, 0, 0)" stroke-linecap="square" stroke-miterlimit="10" pointer-events="none"/><g fill="rgb(0, 0, 0)" font-family="Helvetica" font-weight="bold" pointer-events="none" clip-path="url(#mx-clip-17-47-30-30-0)" text-anchor="middle" font-size="12px"><text x="31.5" y="66.5">PK</text></g><path d="M 47 47 M 197 47 M 197 77 M 47 77" fill="none" stroke="rgb(0, 0, 0)" stroke-linecap="square" stroke-miterlimit="10" pointer-events="none"/><g fill="rgb(0, 0, 0)" font-family="Helvetica" font-weight="bold" text-decoration="underline" pointer-events="none" clip-path="url(#mx-clip-53-47-144-30-0)" font-size="12px"><text x="54.5" y="66.5">Id: unsigned</text></g><path d="M 17 77 M 47 77 M 47 107 M 17 107" fill="none" stroke="rgb(0, 0, 0)" stroke-linecap="square" stroke-miterlimit="10" pointer-events="none"/><g fill="rgb(0, 0, 0)" font-family="Helvetica" pointer-events="none" clip-path="url(#mx-clip-17-77-30-30-0)" text-anchor="middle" font-size="12px"><text x="31.5" y="96.5">FK</text></g><path d="M 47 77 M 197 77 M 197 107 M 47 107" fill="none" stroke="rgb(0, 0, 0)" stroke-linecap="square" stroke-miterlimit="10" pointer-events="none"/><g fill="rgb(0, 0, 0)" font-family="Helvetica" pointer-events="none" clip-path="url(#mx-clip-53-77-144-30-0)" font-size="12px"><text x="54.5" y="96.5">ZoneId</text></g><path d="M 17 107 M 47 107 M 47 137 M 17 137" fill="none" stroke="rgb(0, 0, 0)" stroke-linecap="square" stroke-miterlimit="10" pointer-events="none"/><g fill="rgb(0, 0, 0)" font-family="Helvetica" pointer-events="none" clip-path="url(#mx-clip-17-107-30-30-0)" text-anchor="middle" font-size="12px"><text x="31.5" y="126.5">FK</text></g><path d="M 47 107 M 197 107 M 197 137 M 47 137" fill="none" stroke="rgb(0, 0, 0)" stroke-linecap="square" stroke-miterlimit="10" pointer-events="none"/><g fill="rgb(0, 0, 0)" font-family="Helvetica" pointer-events="none" clip-path="url(#mx-clip-53-107-144-30-0)" font-size="12px"><text x="54.5" y="126.5">InventoryId</text></g><path d="M 417 62 L 447 62 L 447 92 L 517 92" fill="none" stroke="rgb(0, 0, 0)" stroke-miterlimit="10" pointer-events="none"/><path d="M 517 88 L 509 92 L 517 96" fill="none" stroke="rgb(0, 0, 0)" stroke-miterlimit="10" pointer-events="none"/><path d="M 417 62 L 447 62 L 447 252 L 217 252 L 217 442 L 237 442" fill="none" stroke="rgb(0, 0, 0)" stroke-miterlimit="10" pointer-events="none"/><path d="M 237 438 L 229 442 L 237 446" fill="none" stroke="rgb(0, 0, 0)" stroke-miterlimit="10" pointer-events="none"/><path d="M 517 302 L 227 302 L 227 412 L 237 412" fill="none" stroke="rgb(0, 0, 0)" stroke-miterlimit="10" pointer-events="none"/><path d="M 237 408 L 229 412 L 237 416" fill="none" stroke="rgb(0, 0, 0)" stroke-miterlimit="10" pointer-events="none"/><path d="M 17 222 L 7 222 L 7 122 L 17 122" fill="none" stroke="rgb(0, 0, 0)" stroke-miterlimit="10" pointer-events="none"/><path d="M 17 118 L 9 122 L 17 126" fill="none" stroke="rgb(0, 0, 0)" stroke-miterlimit="10" pointer-events="none"/><path d="M 417 62 L 447 62 L 447 7 L 7 7 L 7 92 L 17 92" fill="none" stroke="rgb(0, 0, 0)" stroke-miterlimit="10" pointer-events="none"/><path d="M 17 88 L 9 92 L 17 96" fill="none" stroke="rgb(0, 0, 0)" stroke-miterlimit="10" pointer-events="none"/><path d="M 517 302 L 487 302 L 487 122 L 517 122" fill="none" stroke="rgb(0, 0, 0)" stroke-miterlimit="10" pointer-events="none"/><path d="M 517 118 L 509 122 L 517 126" fill="none" stroke="rgb(0, 0, 0)" stroke-miterlimit="10" pointer-events="none"/></g></svg>